# xmcd CD database file
#
# Track frame offsets:
#	150
#	25954
#	56462
#	81644
#	120245
#
# Disc length: 2346 seconds
#
# Revision: 0
# Processed by: cddbd v1.4PL0 Copyright (c) Steve Scherf et al.
# Submitted via: CDex 1.51
#
DISCID=38092805
DTITLE=Matthew Shipp and William Parker Duo - Live at Robert Wyatt's Meltdown Festival, Gateway Studio London, England - June, 20 th 2001
DYEAR=2001
DGENRE=Jazz
TTITLE0=Untitled I
TTITLE1=Untitled II
TTITLE2=Untitled III
TTITLE3=Untitled IV
TTITLE4=Untitled V
EXTD=YEAR: 2001
EXTT0=
EXTT1=
EXTT2=
EXTT3=
EXTT4=
PLAYORDER=
